<svg width="32" height="32" viewBox="0 0 32 32" fill="none" xmlns="http://www.w3.org/2000/svg">
  <!-- Background circle -->
  <circle cx="16" cy="16" r="16" fill="#2563EB"/>
  
  <!-- Money/Coin icon -->
  <circle cx="16" cy="16" r="8" fill="#FFFFFF"/>
  <circle cx="16" cy="16" r="6" fill="#2563EB"/>
  
  <!-- Dollar sign -->
  <path d="M16 10V22M14 12C14 11.4477 14.4477 11 15 11H17C17.5523 11 18 11.4477 18 12C18 12.5523 17.5523 13 17 13H15C14.4477 13 14 13.4477 14 14C14 14.5523 14.4477 15 15 15H17C17.5523 15 18 15.4477 18 16C18 16.5523 17.5523 17 17 17H15C14.4477 17 14 16.5523 14 16" stroke="#FFFFFF" stroke-width="1.5" stroke-linecap="round"/>
  
  <!-- Sparkle effect -->
  <circle cx="8" cy="8" r="1" fill="#FCD34D"/>
  <circle cx="24" cy="8" r="1" fill="#FCD34D"/>
  <circle cx="8" cy="24" r="1" fill="#FCD34D"/>
  <circle cx="24" cy="24" r="1" fill="#FCD34D"/>
</svg> 