<svg width="128" height="128" viewBox="0 0 128 128" fill="none" xmlns="http://www.w3.org/2000/svg">
  <!-- Background circle -->
  <circle cx="64" cy="64" r="64" fill="#2563EB"/>
  
  <!-- Money/Coin icon -->
  <circle cx="64" cy="64" r="32" fill="#FFFFFF"/>
  <circle cx="64" cy="64" r="24" fill="#2563EB"/>
  
  <!-- Dollar sign -->
  <path d="M64 40V88M56 48C56 44.6863 58.6863 42 62 42H66C69.3137 42 72 44.6863 72 48C72 51.3137 69.3137 54 66 54H62C58.6863 54 56 56.6863 56 60C56 63.3137 58.6863 66 62 66H66C69.3137 66 72 68.6863 72 72C72 75.3137 69.3137 78 66 78H62C58.6863 78 56 75.3137 56 72" stroke="#FFFFFF" stroke-width="6" stroke-linecap="round"/>
  
  <!-- Sparkle effects -->
  <circle cx="32" cy="32" r="4" fill="#FCD34D"/>
  <circle cx="96" cy="32" r="4" fill="#FCD34D"/>
  <circle cx="32" cy="96" r="4" fill="#FCD34D"/>
  <circle cx="96" cy="96" r="4" fill="#FCD34D"/>
  
  <!-- Additional sparkles -->
  <circle cx="48" cy="16" r="2" fill="#FCD34D"/>
  <circle cx="80" cy="16" r="2" fill="#FCD34D"/>
  <circle cx="48" cy="112" r="2" fill="#FCD34D"/>
  <circle cx="80" cy="112" r="2" fill="#FCD34D"/>
</svg> 